<?xml version="1.0" encoding="utf-8"?>
<!-- Generator: Adobe Illustrator 19.0.0, SVG Export Plug-In . SVG Version: 6.00 Build 0)  -->
<svg version="1.1" id="图层_1" xmlns="http://www.w3.org/2000/svg" xmlns:xlink="http://www.w3.org/1999/xlink" x="0px" y="0px"
	 viewBox="-269 233 420 96" style="enable-background:new -269 233 420 96;" xml:space="preserve">
<style type="text/css">
	.st0{fill:#B83032;}
	.st1{fill:#B92F30;}
	.st2{fill:#E84645;}
	.st3{fill:#FF9999;}
</style>
<g id="XMLID_109_">
	<path id="XMLID_48_" class="st0" d="M-78.7,323h-8.7l-5.6-4.8c-1-0.8-1.7-1.4-2.2-1.9s-0.9-0.8-1.2-1.1c0,0.4,0,0.8,0.1,1.3
		c0,0.4,0,0.9,0,1.3v5.2h-5.8v-18.2h5.8v4.2c0,0.6,0,1.1,0,1.7c0,0.5,0,1.1-0.1,1.5c0.4-0.3,0.8-0.7,1.4-1.2
		c0.5-0.5,1.2-1.1,2.1-1.8l5.4-4.4h8.4l-7.1,5.2c-0.6,0.5-1.2,0.9-1.6,1.2c-0.5,0.3-0.9,0.6-1.3,0.9s-0.7,0.5-1,0.7
		s-0.6,0.4-0.9,0.6c0.5,0.4,1.2,0.8,2,1.4c0.8,0.5,1.7,1.3,3,2.3L-78.7,323z"/>
	<path id="XMLID_50_" class="st0" d="M-55.1,318.3l-3.7,4.7h-18v-18.2h21.7l-3.7,4.7h-12.1v2.2h14.8l-3.3,4.1h-11.5v2.5
		C-70.9,318.3-55.1,318.3-55.1,318.3z"/>
	<path id="XMLID_52_" class="st0" d="M-31.4,318.3l-3.7,4.7h-18v-18.2h21.6l-3.7,4.7h-12.1v2.2h14.8l-3.3,4.1h-11.5v2.5
		C-47.3,318.3-31.4,318.3-31.4,318.3z"/>
	<path id="XMLID_54_" class="st0" d="M-10.5,323.3c-0.4,0-0.7-0.1-1.1-0.2s-0.8-0.4-1.2-0.8l-11.4-10V323h-5.2v-15.1
		c0-0.6,0.1-1.1,0.3-1.5s0.4-0.8,0.7-1.1c0.3-0.3,0.6-0.5,1-0.6s0.8-0.2,1.2-0.2s0.7,0.1,1.1,0.2s0.8,0.4,1.2,0.8l11.4,10v-10.7h5.3
		v15.1c0,0.6-0.1,1.1-0.3,1.5c-0.2,0.4-0.4,0.8-0.7,1.1c-0.3,0.3-0.6,0.5-1,0.6C-9.7,323.2-10.1,323.3-10.5,323.3z"/>
	<path id="XMLID_136_" class="st0" d="M20.7,311.6c0,1-0.2,1.9-0.6,2.8c-0.4,0.8-1,1.5-1.8,2.1s-1.8,1-2.9,1.4
		c-1.1,0.3-2.4,0.5-3.9,0.5H1.7v4.6h-5.8v-9.3H12c0.9,0,1.6-0.2,2.1-0.6s0.7-0.9,0.7-1.5s-0.2-1.1-0.7-1.5s-1.2-0.6-2.1-0.6H-4.1
		l3.8-4.7h11.7c1.5,0,2.7,0.2,3.9,0.5c1.1,0.3,2.1,0.8,2.9,1.4s1.4,1.3,1.8,2.1C20.5,309.7,20.7,310.6,20.7,311.6z"/>
	<path id="XMLID_138_" class="st0" d="M36.7,304.5c4.5,0,8,0.8,10.2,2.3s3.4,3.9,3.4,7.1c0,3.3-1.1,5.6-3.4,7.2
		c-2.3,1.5-5.7,2.3-10.2,2.3c-4.6,0-8-0.8-10.3-2.3s-3.4-3.9-3.4-7.2c0-3.2,1.1-5.6,3.4-7.1C28.8,305.2,32.2,304.5,36.7,304.5z
		 M36.7,318.5c1.5,0,2.7-0.1,3.7-0.2s1.8-0.3,2.4-0.7c0.6-0.3,1.1-0.8,1.4-1.4c0.3-0.6,0.4-1.4,0.4-2.4s-0.1-1.8-0.4-2.4
		s-0.7-1.1-1.4-1.4s-1.4-0.6-2.4-0.7s-2.2-0.2-3.7-0.2s-2.7,0.1-3.7,0.2s-1.8,0.3-2.4,0.7c-0.6,0.3-1.1,0.8-1.4,1.4
		s-0.4,1.4-0.4,2.4s0.1,1.8,0.4,2.4s0.7,1.1,1.4,1.4c0.6,0.3,1.4,0.6,2.4,0.7C34.1,318.5,35.3,318.5,36.7,318.5z"/>
	<path id="XMLID_141_" class="st0" d="M70.9,316.2c-0.4-0.7-0.8-1.3-1.1-1.9c-0.3-0.5-0.6-1-0.8-1.4c-0.2-0.4-0.5-0.8-0.6-1.2
		c-0.2-0.3-0.3-0.7-0.5-1c-0.1,0.3-0.3,0.7-0.5,1s-0.4,0.7-0.6,1.2c-0.2,0.4-0.5,0.9-0.8,1.4s-0.7,1.1-1.1,1.8l-3,5.2
		c-0.3,0.6-0.8,1-1.3,1.4s-1.1,0.5-1.9,0.5c-0.7,0-1.4-0.2-2-0.6s-1-1-1.3-1.9l-4.7-16h5.8l1.8,6.3c0.3,1,0.5,1.9,0.7,2.7
		c0.2,0.8,0.4,1.5,0.5,2.3c0.3-0.6,0.6-1.3,1-2.1c0.4-0.8,0.9-1.7,1.6-2.9l2.5-4.6c0.2-0.5,0.5-0.8,0.7-1.1c0.2-0.3,0.5-0.5,0.8-0.6
		s0.6-0.2,0.9-0.3s0.6-0.1,0.9-0.1c0.4,0,0.7,0,1,0.1c0.3,0,0.6,0.1,0.9,0.3c0.3,0.1,0.5,0.3,0.8,0.6c0.3,0.3,0.5,0.6,0.7,1.1
		l2.5,4.6c0.4,0.6,0.7,1.2,0.9,1.7c0.3,0.5,0.5,0.9,0.7,1.3s0.4,0.7,0.5,1.1c0.2,0.3,0.3,0.6,0.5,1c0.1-0.7,0.3-1.5,0.5-2.3
		s0.5-1.7,0.7-2.7l1.8-6.3H85l-4.8,16c-0.3,0.9-0.7,1.5-1.3,1.9c-0.6,0.4-1.2,0.6-2,0.6c-0.7,0-1.4-0.2-1.9-0.5s-0.9-0.8-1.3-1.4
		L70.9,316.2z"/>
	<path id="XMLID_143_" class="st0" d="M109.1,318.3l-3.7,4.7h-18v-18.2H109l-3.7,4.7H93.2v2.2H108l-3.3,4.1H93.2v2.5
		C93.2,318.3,109.1,318.3,109.1,318.3z"/>
	<path id="XMLID_145_" class="st0" d="M137.6,323h-7.7l-4.2-4.8h-8.9v4.8H111v-9.3h16.2c0.9,0,1.6-0.2,2.3-0.5
		c0.6-0.4,0.9-0.9,0.9-1.5c0-0.7-0.3-1.2-0.8-1.6c-0.6-0.4-1.3-0.5-2.3-0.5h-16.2l3.8-4.7h12c1.1,0,2.2,0.1,3.3,0.3
		c1.1,0.2,2.2,0.5,3.1,1s1.7,1.2,2.3,2s0.9,1.9,0.9,3.2c0,0.7-0.1,1.4-0.3,2s-0.5,1.2-1,1.7s-0.9,0.9-1.5,1.3s-1.3,0.6-2.1,0.7
		c0.3,0.2,0.7,0.5,1.1,0.9s0.9,0.9,1.6,1.5L137.6,323z"/>
</g>
<path id="XMLID_103_" class="st0" d="M34.2,259.3c-1.2-0.1-9.4-0.2-9.4-0.2l0.3,29.7h-5.3l0.3-21.1l-8.6,12.8l-0.3-8l8.4-13.4
	l-10.7,0.2v-7.1h11.2v-5.1l-5.1,1l-0.8-7.5H31v4.1l-6.1,1.3v6.1c0,0,9,0.1,10.2,0L34.2,259.3z M26,261l9.1,7.4l-6.9,3.8 M51.3,240.1
	h7L58,268l5.6-0.4v6l-5.5,0.5l0.2,14.7l-7.3-0.1l0.2-13.9l-20.3,1.4l5.5-6l15-1.4L51.3,240.1L51.3,240.1L51.3,240.1z M49.4,267.3h-6
	l-5.5-12.6h6L49.4,267.3z M49.8,253h-5.5l-3.9-9.6l5.4-0.2L49.8,253z"/>
<g id="XMLID_92_">
	<path id="XMLID_100_" class="st0" d="M89.2,265.7c0,0-3.8,2.5-6.1,3.5l0.3,19.5H78v-17.9c-2.5,1-8.5,4.3-8.5,4.3v-7.7
		c0,0,3.7-1.4,8.5-3.4v-7.5c-6.4,0-4.5-0.1-6.7,0l-0.4-6.3l7.1,0.2c0,0,0.2-8.7,0-11.1l5.4,2.1c-0.2,2.1-0.1,9-0.1,9l6.3-0.2
		l-0.3,6.3c-2.5-0.1-4.3,0-6,0v5.9c2.2-0.8,4.2-1.8,6.1-2.9C89.4,260.4,89.2,265.7,89.2,265.7z M103.9,259.5v-6.7
		c0,0-8.8-0.3-10.6-0.1v-5.2c2.3,0.1,10.6,0.2,10.6,0.2c0-2.1,0-4.5-0.1-7.6h4.7c-0.2,2.5-0.1,5-0.1,7.6c0,0,10.1-0.1,12.3-0.2v5.2
		c-2.2-0.1-12.3,0.1-12.3,0.1v6.7C108.3,259.5,99.6,259.5,103.9,259.5z"/>
	<polygon id="XMLID_99_" class="st0" points="115.4,262.4 121.3,261 93.2,288.8 93.1,280.9 	"/>
	<polygon id="XMLID_98_" class="st0" points="93.3,258.7 104.8,258.9 109.2,258.9 121.1,258.9 121,262.3 107.2,262.3 93.3,262.3 	
		"/>
	<g id="XMLID_93_">
		<g id="XMLID_128_">
			<path class="st0" d="M94.2,263.5l3.1-0.2l0,0l0,0c3,2,5.9,3.9,8.9,6l8.8,6l17.6,11.7l1.2,0.8h-1.4l-14.1-0.1h-0.2l-0.1-0.1
				l-11.9-11.8c-2-2-4-4.1-5.9-6.1L94.2,263.5z M94.3,263.5l24,23.8l0,0h14.1v0.1l-35.1-24l0,0L94.3,263.5z"/>
			<g>
				<path class="st0" d="M94.2,263.5l3.1-0.3h0.1c0,0,36.2,23.5,37,24l-0.5,1.6c-1.3,0-15.8-0.3-15.8-0.3l-0.6-0.2L94.2,263.5
					L94.2,263.5z M94.3,263.5l11.9,12.2l12,11.9h-0.1l15.7,0.1l-0.1,0.2c-1.5-1-3-2.1-4.6-3.1l-4.5-2.7l-9.1-6.3
					c-6.1-4.2-12.2-8.3-18.3-12.4l0,0L94.3,263.5z"/>
				<path class="st0" d="M94.6,263.7l5.9,5.7c1,1,2.1,1.9,3.1,2.9l3.1,3l6.1,5.9c2,2,4,3.6,6.1,5.6l-0.6-0.2h7c2.3,0,4.7,0,7,0
					l0.9,0.9v0.1l-1.4,0.7l-8.7-5.8c-2.9-2.1-5.8-4.1-8.7-6.2l-8.7-6.3c-1.4-1-2.9-2.1-4.3-3.2l-4.3-3.1h0.1L94.6,263.7z
					 M94.3,263.5l3-0.1l0,0l35.1,24l-0.2,0.1v-0.1l0.1,0.1h-14h-0.1L94.3,263.5L94.3,263.5z"/>
			</g>
		</g>
	</g>
</g>
<g id="XMLID_82_">
	<path id="XMLID_90_" class="st0" d="M-18,254.4h-7.2l-11.5,0.1v-6.1c6.7,0.1,12.9,0,12.9,0h7.9H1.7l-7,6H-18z"/>
	<polygon id="XMLID_89_" class="st0" points="-3,255.9 3.1,250.5 3.1,279.9 -3,288.8 	"/>
	<polygon id="XMLID_88_" class="st0" points="-3,288.8 -9.2,288.8 -3,279.5 	"/>
	<g id="XMLID_83_">
		<g id="XMLID_132_">
			<path class="st0" d="M-13.5,239.5l5.2-0.2h0.1v0.1l-16.5,48.3v0.1h-0.1h-12.4h-0.4l0.2-0.3l6-11.9l6-12.4
				C-21.6,254.9-17.6,247.7-13.5,239.5L-13.5,239.5z M-13.5,239.5c-3.9,8.3-7.8,15.6-11.8,23.8l-6,12.4l-6,11.9l-0.2-0.3h12.4
				l-0.2,0.1l16.8-48.2v0.1L-13.5,239.5z"/>
			<g>
				<path class="st0" d="M-13.5,239.5c0,0,4.4-0.5,4.8-0.5l0.6,0.3v0.1v0.1c-1.3,4.2-2.5,7.4-3.8,11.6l-3.9,12.5
					c-1.3,4.2-2.7,8.3-4,12.5l-4.1,11.8l-0.9,0.9c-2.1,0-4.3,0-6.4,0h-6.4l-0.7-1.3l6.1-12c2-4.1,4.1-8.2,6.1-12.3l3.1-6.1
					c1-2,2-4.1,3.1-6.1L-13.5,239.5L-13.5,239.5z M-13.5,239.5l-23.8,48l0,0l-0.2,0.3l-0.1-0.1h12.9l-0.1,0.1v-0.1l0,0l16.5-48.3
					l0,0v-0.1l0.1,0.1C-10,239.4-11.7,239.5-13.5,239.5z"/>
				<path class="st0" d="M-13.5,239.5l-5.6,11.5c-0.9,2.1-1.9,4.2-2.8,6.3l-2.9,6.3l-2.9,6.2l-3,6.2l-5.9,11.9l-1-1.5h6.2h6.2
					l0.4,1.7l-0.2,0.1l-1.2-1.1l4.3-11.9c1.4-4.1,2.8-8.3,4.3-12.4l4.4-12.4c0.7-2.1,1.5-4.1,2.2-6.2l2.3-5.2l0.4,0.2l0,0l-0.3,0.4
					L-13.5,239.5z M-13.5,239.5l5-0.2l-0.1,0.1v-0.1h0.1l-16.8,48.2l-0.1-0.1l0.2-0.1v0.2h-12.4l0.1-0.1l0.2,0.3h-0.2l12-24.3
					L-13.5,239.5L-13.5,239.5z"/>
			</g>
		</g>
	</g>
</g>
<g id="XMLID_72_">
	<polygon id="XMLID_81_" class="st1" points="-47.2,260.6 -47.1,268.4 -61,260.7 	"/>
	<rect id="XMLID_80_" x="-87.4" y="254.4" class="st1" width="25.8" height="4.2"/>
	<path id="XMLID_75_" class="st1" d="M-74.4,260.3l5.4,3.4h-10.8L-74.4,260.3h-9.3l-21.1,13.4h9.3l1.2-0.7v15.8h4.4h2.5h25.7h2.9h4
		v-16l1.6,1h9.3l-21.2-13.5L-74.4,260.3L-74.4,260.3z M-87.1,268.3h25.3v2.1h-25.7v-1.9L-87.1,268.3z M-87.5,274.9h25.7v2h-25.7
		V274.9z M-87.5,281.4h25.7v2h-25.7V281.4z"/>
	<polygon id="XMLID_74_" class="st1" points="-101.8,260.5 -101.8,268.3 -87.9,260.5 	"/>
	<polygon id="XMLID_73_" class="st1" points="-94.3,253 -54.6,253 -54.6,259.3 -47.1,259.3 -47.1,249.1 -51.2,247.1 -70.5,247.1 
		-70.5,244.9 -64.3,244.4 -66.9,239 -66.9,239 -78,239 -78,244.9 -78,247.1 -97.4,247.1 -97.4,247.1 -101.8,250 -101.8,259.3 
		-94.3,259.3 	"/>
</g>
<g id="XMLID_61_">
	<polygon id="XMLID_71_" class="st1" points="-194.6,286.6 -221.9,304.2 -194.6,324 	"/>
	<polygon id="XMLID_70_" class="st2" points="-194.6,286.6 -167.6,303.5 -194.6,324 	"/>
	<polygon id="XMLID_69_" class="st1" points="-218.5,271.6 -247.2,286.1 -224.8,302.3 -218.4,298.1 	"/>
	<polygon id="XMLID_68_" class="st2" points="-197.2,285 -218.5,271.6 -218.4,298.1 	"/>
	<polygon id="XMLID_67_" class="st1" points="-237.1,259.9 -265.6,272.8 -249.3,284.5 -237.1,278.3 	"/>
	<polygon id="XMLID_66_" class="st2" points="-220.8,270.1 -237.1,259.9 -237.1,278.3 	"/>
	<polygon id="XMLID_65_" class="st1" points="-214.9,266.3 -214.9,249 -194.9,239 -194.9,255.6 	"/>
	<polygon id="XMLID_64_" class="st1" points="-194.8,283.3 -194.8,258.9 -214.8,270.3 	"/>
	<polygon id="XMLID_63_" class="st2" points="-172.5,273 -191.7,285 -144.4,285.9 -127.7,273 	"/>
	<polygon id="XMLID_62_" class="st3" points="-175.1,271.5 -194.8,258.9 -194.8,283.3 	"/>
</g>
</svg>
